<svg xmlns="http://www.w3.org/2000/svg" viewBox="0 0 384 385.75"><g id="Layer_2" data-name="Layer 2"><g id="Layer_1-2" data-name="Layer 1"><g id="surface1"><path d="M328.06,56.06A190,190,0,0,0,192.81,0C87.44,0,1.63,85.75,1.63,191.13a190,190,0,0,0,25.5,95.56L0,385.75l101.38-26.62a191.26,191.26,0,0,0,91.37,23.31h.06c105.38,0,191.13-85.75,191.19-191.19A190.1,190.1,0,0,0,328.06,56.06ZM192.81,350.13h-.06A158.84,158.84,0,0,1,111.88,328l-5.82-3.44L45.88,340.31l16.06-58.62-3.75-6a158.42,158.42,0,0,1-24.31-84.56c0-87.57,71.31-158.82,159-158.82A158.88,158.88,0,0,1,351.69,191.25C351.69,278.88,280.38,350.13,192.81,350.13Zm87.13-119c-4.75-2.38-28.25-13.94-32.63-15.5s-7.56-2.38-10.75,2.37-12.31,15.56-15.12,18.75-5.56,3.56-10.31,1.19-20.19-7.44-38.44-23.75c-14.19-12.63-23.81-28.31-26.56-33.06s-.32-7.38,2.06-9.75c2.19-2.13,4.81-5.57,7.19-8.38s3.18-4.75,4.81-7.94.75-6-.44-8.37S149,120.75,145,111.19c-3.87-9.31-7.81-8-10.75-8.19-2.75-.12-5.94-.12-9.12-.12a17.44,17.44,0,0,0-12.75,6c-4.38,4.75-16.69,16.31-16.69,39.81s17.12,46.25,19.5,49.44,33.69,51.37,81.62,72.06A265.26,265.26,0,0,0,224,280.25c11.44,3.63,21.88,3.13,30.13,1.94,9.18-1.38,28.25-11.56,32.25-22.75s3.93-20.69,2.75-22.69S284.75,233.56,279.94,231.13Z" fill="#fff" fill-rule="evenodd"/></g></g></g></svg>